<svg width="202" height="81" viewBox="0 0 202 81" fill="none" xmlns="http://www.w3.org/2000/svg">
<path d="M81.817 35.36C79.969 35.36 78.217 35.18 76.561 34.82C74.929 34.436 73.477 33.764 72.205 32.804C70.957 31.844 69.973 30.512 69.253 28.808C68.533 27.104 68.173 24.92 68.173 22.256C68.173 19.688 68.557 17.564 69.325 15.884C70.093 14.18 71.113 12.836 72.385 11.852C73.681 10.868 75.109 10.172 76.669 9.764C78.253 9.356 79.849 9.152 81.457 9.152C82.633 9.152 83.653 9.212 84.517 9.332C85.381 9.452 86.209 9.608 87.001 9.8L91.897 12.644L89.377 18.224L81.421 15.416C80.269 15.416 79.201 15.644 78.217 16.1C77.257 16.556 76.477 17.288 75.877 18.296C75.301 19.28 75.013 20.612 75.013 22.292C75.013 25.004 75.613 26.912 76.813 28.016C78.037 29.096 79.705 29.636 81.817 29.636C82.897 29.636 83.737 29.588 84.337 29.492C84.961 29.372 85.441 29.276 85.777 29.204V26.468H81.205V21.14H92.653L93.049 23.3L92.257 26.288V33.848C91.993 33.944 91.393 34.112 90.457 34.352C89.545 34.592 88.345 34.82 86.857 35.036C85.393 35.252 83.713 35.36 81.817 35.36ZM94.8664 35L96.5944 28.916V24.344L99.2584 23.264L103.938 9.548H113.262L119.058 25.676L121.83 30.788V35H115.458L113.658 29.24H103.182L101.634 35H94.8664ZM105.558 23.696H111.678L108.942 15.452H108.186L105.558 23.696Z" fill="#FF2900"/>
<path d="M22.9958 80V60.308L22.2758 56.672L22.9958 54.512H34.5158C36.2678 54.512 37.8398 54.788 39.2318 55.34C40.6478 55.868 41.7638 56.78 42.5798 58.076C43.4198 59.348 43.8398 61.112 43.8398 63.368C43.8398 65.624 43.3958 67.412 42.5078 68.732C41.6198 70.028 40.3838 70.952 38.7998 71.504C37.2398 72.056 35.4518 72.332 33.4358 72.332H29.4758V74.204L29.8358 77.804L29.4758 80H22.9958ZM29.4758 66.68H33.0038C34.2518 66.68 35.2478 66.452 35.9918 65.996C36.7358 65.516 37.1078 64.64 37.1078 63.368C37.1078 62.48 36.9278 61.82 36.5678 61.388C36.2078 60.932 35.7038 60.632 35.0558 60.488C34.4318 60.344 33.6998 60.272 32.8598 60.272H29.1158L29.4758 66.68ZM59.2833 80.36C57.7473 80.36 56.2473 80.18 54.7833 79.82C53.3433 79.436 52.0353 78.764 50.8593 77.804C49.7073 76.844 48.7833 75.512 48.0873 73.808C47.4153 72.104 47.0793 69.92 47.0793 67.256C47.0793 64.592 47.4153 62.408 48.0873 60.704C48.7833 59 49.7073 57.668 50.8593 56.708C52.0353 55.748 53.3433 55.088 54.7833 54.728C56.2473 54.344 57.7473 54.152 59.2833 54.152C60.8193 54.152 62.3073 54.344 63.7473 54.728C65.2113 55.112 66.5193 55.784 67.6713 56.744C68.8473 57.704 69.7713 59.036 70.4433 60.74C71.1393 62.444 71.4873 64.616 71.4873 67.256C71.4873 69.896 71.1393 72.068 70.4433 73.772C69.7713 75.476 68.8473 76.808 67.6713 77.768C66.5193 78.728 65.2113 79.4 63.7473 79.784C62.3073 80.168 60.8193 80.36 59.2833 80.36ZM59.2833 74.24C61.0593 74.24 62.4033 73.712 63.3153 72.656C64.2273 71.6 64.6833 69.8 64.6833 67.256C64.6833 64.712 64.2273 62.912 63.3153 61.856C62.4033 60.8 61.0593 60.272 59.2833 60.272C57.5313 60.272 56.1993 60.812 55.2873 61.892C54.3753 62.972 53.9193 64.76 53.9193 67.256C53.9193 69.752 54.3753 71.54 55.2873 72.62C56.1993 73.7 57.5313 74.24 59.2833 74.24ZM75.8005 80V60.308L75.0805 56.672L75.8005 54.512H87.3205C89.0725 54.512 90.6445 54.788 92.0365 55.34C93.4525 55.868 94.5685 56.78 95.3845 58.076C96.2245 59.348 96.6445 61.112 96.6445 63.368C96.6445 65.408 96.2725 67.064 95.5285 68.336C94.7845 69.584 93.7525 70.52 92.4325 71.144L92.7925 71.54L96.3565 76.004L98.4085 77.84V80H90.3085L85.2685 72.332H82.2805V74.204L82.6405 77.804L82.2805 80H75.8005ZM82.2805 66.68H85.8085C87.0565 66.68 88.0525 66.452 88.7965 65.996C89.5405 65.516 89.9125 64.64 89.9125 63.368C89.9125 62.48 89.7325 61.82 89.3725 61.388C89.0125 60.932 88.5085 60.632 87.8605 60.488C87.2365 60.344 86.5045 60.272 85.6645 60.272H81.9205L82.2805 66.68ZM106.68 80V60.272L99.4803 60.632V54.512H120.54V60.632L113.16 60.272V74.24L113.556 77.84L113.16 80H106.68ZM119.23 80L120.958 73.916V69.344L123.622 68.264L128.302 54.548H137.626L143.422 70.676L146.194 75.788V80H139.822L138.022 74.24H127.546L125.998 80H119.23ZM129.922 68.696H136.042L133.306 60.452H132.55L129.922 68.696ZM149.418 80L148.698 77.84L149.418 74.24V54.512H155.898V69.308L155.538 74.24H156.258L162.702 73.88L165.258 73.52L168.426 77.696L166.662 80H149.418Z" fill="#4379EE"/>
</svg>
